<svg xmlns="http://www.w3.org/2000/svg" width="512" height="512" viewBox="0 0 512 512">
  <defs>
    <linearGradient id="bg2" x1="0" y1="0" x2="1" y2="1">
      <stop offset="0%" stop-color="#0f0c29"/>
      <stop offset="50%" stop-color="#302b63"/>
      <stop offset="100%" stop-color="#24243e"/>
    </linearGradient>
    <linearGradient id="shield2" x1="0" y1="0" x2="0" y2="1">
      <stop offset="0%" stop-color="#667eea"/>
      <stop offset="100%" stop-color="#764ba2"/>
    </linearGradient>
  </defs>
  <!-- 圆角方形背景 -->
  <rect x="40" y="40" width="432" height="432" rx="96" ry="96" fill="url(#bg2)"/>
  <!-- 盾牌 -->
  <path d="M256,90 L380,140 L380,260 Q380,370 256,430 Q132,370 132,260 L132,140 Z" fill="url(#shield2)" stroke="#a78bfa" stroke-width="3"/>
  <!-- 盾牌内部装饰环 -->
  <path d="M256,120 L340,155 L340,260 Q340,340 256,385 Q172,340 172,260 L172,155 Z" fill="none" stroke="#c4b5fd" stroke-width="1.5" opacity="0.5"/>
  <!-- 闪电 -->
  <polygon points="280,160 200,240 250,240 210,360 320,260 268,260 310,160" fill="#ffd700" stroke="#fff" stroke-width="1.5"/>
</svg>
