<svg xmlns="http://www.w3.org/2000/svg" width="512" height="512" viewBox="0 0 512 512">
  <defs>
    <linearGradient id="bg6" x1="0" y1="0" x2="1" y2="1">
      <stop offset="0%" stop-color="#0a0a1a"/>
      <stop offset="100%" stop-color="#1a1040"/>
    </linearGradient>
    <linearGradient id="hex6" x1="0" y1="0" x2="1" y2="1">
      <stop offset="0%" stop-color="#00d4ff"/>
      <stop offset="100%" stop-color="#7b2ff7"/>
    </linearGradient>
    <linearGradient id="gold6" x1="0" y1="0" x2="0" y2="1">
      <stop offset="0%" stop-color="#ffd700"/>
      <stop offset="100%" stop-color="#f59e0b"/>
    </linearGradient>
  </defs>
  <!-- 圆角方形背景 -->
  <rect x="40" y="40" width="432" height="432" rx="96" ry="96" fill="url(#bg6)"/>
  <!-- 六边形 -->
  <polygon points="256,100 386,175 386,325 256,400 126,325 126,175" fill="none" stroke="url(#hex6)" stroke-width="8" opacity="0.8"/>
  <polygon points="256,130 356,188 356,312 256,370 156,312 156,188" fill="url(#hex6)" opacity="0.15"/>
  <!-- 闪电 -->
  <polygon points="280,140 210,240 252,240 205,370 315,255 268,255 312,140" fill="url(#gold6)" stroke="#fff" stroke-width="1"/>
  <!-- 底部 ¥ -->
  <text x="256" y="360" text-anchor="middle" font-family="Arial" font-size="32" font-weight="900" fill="#ffd700" opacity="0.5">¥</text>
</svg>
